<svg width="87" height="20" viewBox="0 0 87 20" fill="none" xmlns="http://www.w3.org/2000/svg">
<path d="M25.078 15H26.352V7.762L29.586 15H30.482L33.702 7.776V15H34.976V5.312H33.618L30.034 13.32L26.45 5.312H25.078V15ZM36.8006 11.136C36.8006 13.516 38.3826 15.126 40.4266 15.126C41.8406 15.126 42.8346 14.398 43.2966 13.572V15H44.5846V7.328H43.2966V8.728C42.8486 7.93 41.8686 7.202 40.4406 7.202C38.3826 7.202 36.8006 8.742 36.8006 11.136ZM43.2966 11.15C43.2966 12.956 42.0926 14.006 40.6926 14.006C39.2926 14.006 38.1026 12.942 38.1026 11.136C38.1026 9.33 39.2926 8.308 40.6926 8.308C42.0926 8.308 43.2966 9.372 43.2966 11.15ZM46.8775 15H48.1515V4.64H46.8775V15ZM49.9868 11.136C49.9868 13.516 51.5688 15.126 53.6268 15.126C55.0268 15.126 56.0208 14.412 56.4828 13.558V15H57.7708V4.64H56.4828V8.7C55.9508 7.818 54.8448 7.202 53.6408 7.202C51.5688 7.202 49.9868 8.742 49.9868 11.136ZM56.4828 11.15C56.4828 12.956 55.2788 14.006 53.8788 14.006C52.4788 14.006 51.2888 12.942 51.2888 11.136C51.2888 9.33 52.4788 8.308 53.8788 8.308C55.2788 8.308 56.4828 9.372 56.4828 11.15ZM60.0638 15H61.3378V7.328H60.0638V15ZM60.7218 6.082C61.1838 6.082 61.5618 5.704 61.5618 5.214C61.5618 4.724 61.1838 4.346 60.7218 4.346C60.2318 4.346 59.8538 4.724 59.8538 5.214C59.8538 5.704 60.2318 6.082 60.7218 6.082ZM62.7391 7.328L65.7491 15H67.2331L70.2431 7.328H68.8851L66.5051 13.824L64.1111 7.328H62.7391ZM74.8988 8.28C76.2148 8.28 77.3348 9.106 77.3208 10.604H72.4768C72.6168 9.106 73.6528 8.28 74.8988 8.28ZM78.4828 12.634H77.1108C76.8308 13.46 76.1028 14.048 74.9548 14.048C73.6528 14.048 72.5608 13.194 72.4628 11.64H78.5948C78.6228 11.374 78.6368 11.15 78.6368 10.87C78.6368 8.77 77.1808 7.202 74.9548 7.202C72.7148 7.202 71.1608 8.728 71.1608 11.15C71.1608 13.586 72.7708 15.126 74.9548 15.126C76.8588 15.126 78.0908 14.034 78.4828 12.634ZM85.9744 12.914C85.9184 10.17 81.4664 11.164 81.4664 9.344C81.4664 8.728 82.0264 8.28 82.9644 8.28C83.9864 8.28 84.5744 8.84 84.6304 9.61H85.9044C85.8204 8.112 84.7004 7.202 83.0064 7.202C81.2984 7.202 80.1924 8.168 80.1924 9.344C80.1924 12.2 84.7284 11.206 84.7284 12.914C84.7284 13.544 84.1684 14.048 83.1604 14.048C82.0824 14.048 81.4244 13.488 81.3544 12.746H80.0384C80.1224 14.146 81.3824 15.126 83.1744 15.126C84.8684 15.126 85.9744 14.174 85.9744 12.914Z" fill="#FC747B"/>
<path d="M7 0C3.13 0 0 3.13 0 7C0 12.25 7 20 7 20C7 20 14 12.25 14 7C14 3.13 10.87 0 7 0ZM7 9.5C6.33696 9.5 5.70107 9.23661 5.23223 8.76777C4.76339 8.29893 4.5 7.66304 4.5 7C4.5 6.33696 4.76339 5.70107 5.23223 5.23223C5.70107 4.76339 6.33696 4.5 7 4.5C7.66304 4.5 8.29893 4.76339 8.76777 5.23223C9.23661 5.70107 9.5 6.33696 9.5 7C9.5 7.66304 9.23661 8.29893 8.76777 8.76777C8.29893 9.23661 7.66304 9.5 7 9.5Z" fill="#FC747B"/>
</svg>
